<?xml version="1.0" encoding="UTF-8"?> <svg xmlns="http://www.w3.org/2000/svg" xmlns:xlink="http://www.w3.org/1999/xlink" version="1.1" id="Layer_1" x="0px" y="0px" viewBox="0 0 1280 316" style="enable-background:new 0 0 1280 316;" xml:space="preserve"> <style type="text/css"> .st0{fill:#FFFFFF;} .st1{fill:#1CB938;} .st2{fill:#000086;} </style> <g> <g> <g> <g> <path class="st1" d="M139.6,151.5c-9.8,0-17.8-8-17.8-17.8V37.1c0-9.8,8-17.8,17.8-17.8c9.8,0,17.8,8,17.8,17.8v96.6 C157.4,143.5,149.4,151.5,139.6,151.5z"></path> </g> </g> <g> <path class="st1" d="M234.6,170.3c0.2,12.7-2.2,25.1-7,36.8l32.7,14.1c6.8-16.4,10.1-33.7,9.9-51.3L234.6,170.3z"></path> <path class="st1" d="M197.8,246.5l21.8,28.1c14.5-11.2,26.3-25.2,35-41.4l-31.3-16.8C216.9,228.2,208.3,238.4,197.8,246.5z"></path> <path class="st1" d="M224.9,129.7c1.6,3.4,3.1,6.8,4.3,10.4c2.3,6.5,3.8,13.2,4.6,19.9l35.4-3.6c-1.1-9.5-3.2-19-6.4-28.1 c-1.7-4.8-3.7-9.6-5.9-14.2l-1.6-2.7l-31.7,15.7L224.9,129.7z"></path> <path class="st1" d="M207.1,104.5L207.1,104.5c4,4.1,7.7,8.7,10.9,13.4l30-19.1c-4.6-6.9-9.8-13.5-15.7-19.4l-0.1,0.1 c-3.3-3.8-8-6.1-13.4-6.1c-9.8,0-17.7,7.9-17.7,17.7C201.1,96.5,203.4,101.3,207.1,104.5z"></path> <path class="st1" d="M170.9,261.1c-49.5,17.3-103.8-8.9-121-58.4c-10.6-30.3-5-63.2,13.5-88.1c1.6,8.9,13.2,11.8,18.7,4.4h0 c1.7-2.2,2.4-5,2-7.8l-4.8-34.4c-0.8-5.8-6.1-9.8-11.9-9L33,72.8c-2.8,0.4-5.3,1.9-6.9,4.1c-5.4,7.1,0,17.1,8.6,16.9 C9.3,127.9,1.8,173,16.3,214.5c23.7,68,98.4,104,166.4,80.2c9.1-3.2,17.9-7.4,26-12.5l-19.3-29.9 C183.6,255.9,177.4,258.9,170.9,261.1z"></path> </g> </g> <path class="st2" d="M396,50.5V84h58.8v23.6H396v46.2h-29.4V26.9h95.9v23.6H396z"></path> <path class="st2" d="M575,56.3v97.6h-26.8v-11.6c-3.8,4.2-8.2,7.5-13.4,9.7c-5.2,2.2-10.8,3.4-16.9,3.4c-12.8,0-23-3.7-30.5-11.1 c-7.5-7.4-11.2-18.3-11.2-32.8V56.3h28.3v51c0,15.7,6.6,23.6,19.8,23.6c6.8,0,12.2-2.2,16.3-6.6c4.1-4.4,6.2-11,6.2-19.7V56.3H575z "></path> <path class="st2" d="M600,19.3h28.3v134.6H600V19.3z"></path> <path class="st2" d="M653.4,19.3h28.3v134.6h-28.3V19.3z"></path> <path class="st2" d="M889.8,38.2c-3.3-3-4.9-6.8-4.9-11.2s1.6-8.2,4.9-11.2c3.3-3,7.5-4.5,12.7-4.5c5.2,0,9.4,1.4,12.7,4.4 c3.3,2.9,4.9,6.5,4.9,10.9c0,4.7-1.6,8.6-4.9,11.7c-3.3,3.1-7.5,4.6-12.7,4.6C897.3,42.7,893.1,41.2,889.8,38.2z M888.4,56.3h28.3 v97.6h-28.3V56.3z"></path> <path class="st2" d="M982.4,58.5c5.7-2.4,12.4-3.6,19.9-3.6V81c-3.1-0.2-5.3-0.4-6.3-0.4c-8.1,0-14.4,2.3-19,6.8 c-4.6,4.5-6.9,11.3-6.9,20.4v46.1h-28.3V56.3h27v12.9C972.1,64.5,976.7,60.9,982.4,58.5z"></path> <path class="st2" d="M1036.1,148.9c-8.3-4.3-14.8-10.2-19.4-17.9c-4.7-7.6-7-16.3-7-25.9s2.3-18.3,7-25.9 c4.7-7.6,11.1-13.6,19.4-17.9c8.3-4.3,17.6-6.4,28-6.4c10.3,0,19.3,2.1,26.9,6.4c7.7,4.3,13.3,10.4,16.8,18.4l-21.9,11.8 c-5.1-8.9-12.4-13.4-21.9-13.4c-7.4,0-13.5,2.4-18.3,7.3c-4.8,4.8-7.3,11.4-7.3,19.8s2.4,14.9,7.3,19.8c4.8,4.8,10.9,7.3,18.3,7.3 c9.7,0,17-4.5,21.9-13.4l21.9,12c-3.5,7.7-9.1,13.8-16.8,18.1c-7.7,4.4-16.7,6.5-26.9,6.5C1053.7,155.3,1044.4,153.2,1036.1,148.9z "></path> <path class="st2" d="M1122.2,19.3h28.3v134.6h-28.3V19.3z"></path> <path class="st2" d="M1270.5,113.1h-73.8c1.3,6,4.5,10.8,9.4,14.3c5,3.5,11.1,5.3,18.5,5.3c5.1,0,9.6-0.8,13.5-2.3 c3.9-1.5,7.6-3.9,11-7.2l15.1,16.3c-9.2,10.5-22.6,15.8-40.3,15.8c-11,0-20.7-2.1-29.2-6.4c-8.5-4.3-15-10.2-19.6-17.9 c-4.6-7.6-6.9-16.3-6.9-25.9c0-9.6,2.3-18.2,6.8-25.8c4.5-7.7,10.8-13.7,18.7-18c7.9-4.3,16.8-6.4,26.6-6.4 c9.6,0,18.2,2.1,25.9,6.2c7.7,4.1,13.8,10,18.2,17.7c4.4,7.7,6.6,16.6,6.6,26.8C1271,105.8,1270.9,108.4,1270.5,113.1z M1204.3,81.7c-4.4,3.6-7,8.6-8,14.9h48.1c-1-6.2-3.6-11.1-8-14.8c-4.4-3.7-9.7-5.5-16-5.5C1214,76.3,1208.7,78.1,1204.3,81.7z"></path> <g> <path class="st2" d="M425,291.9v7.6h-58.4v-82.6h56.6v7.6h-47.9v29.4h42.7v7.4h-42.7v30.7H425z"></path> <path class="st2" d="M452.5,216.9h8.7v75.1h46.3v7.6h-55V216.9z"></path> <path class="st2" d="M587.4,291.9v7.6H529v-82.6h56.6v7.6h-47.9v29.4h42.7v7.4h-42.7v30.7H587.4z"></path> <path class="st2" d="M628.2,294.8c-6.6-3.6-11.7-8.6-15.5-15c-3.7-6.4-5.6-13.6-5.6-21.5c0-7.9,1.9-15.1,5.6-21.5 s8.9-11.4,15.5-15c6.6-3.6,14-5.4,22.2-5.4c6.1,0,11.8,1,17,3.1c5.2,2,9.6,5,13.2,9l-5.5,5.5c-6.5-6.5-14.6-9.8-24.4-9.8 c-6.5,0-12.5,1.5-17.8,4.5c-5.3,3-9.5,7.1-12.6,12.3c-3,5.2-4.5,11-4.5,17.5c0,6.5,1.5,12.3,4.5,17.5c3,5.2,7.2,9.3,12.6,12.3 c5.3,3,11.3,4.5,17.8,4.5c9.9,0,18.1-3.3,24.4-9.9l5.5,5.5c-3.6,3.9-8,6.9-13.3,9c-5.2,2.1-10.9,3.1-17.1,3.1 C642.1,300.2,634.8,298.4,628.2,294.8z"></path> <path class="st2" d="M721.2,224.4h-29v-7.6H759v7.6h-29v75h-8.7V224.4z"></path> <path class="st2" d="M836.3,299.5l-18.9-26.6c-2.1,0.2-4.3,0.4-6.6,0.4h-22.2v26.2h-8.7v-82.6h30.9c10.5,0,18.8,2.5,24.8,7.6 c6,5,9,12,9,20.8c0,6.5-1.6,11.9-4.9,16.3c-3.3,4.4-7.9,7.7-14,9.6l20.2,28.3H836.3z M829.3,260.4c4.3-3.6,6.5-8.7,6.5-15.2 c0-6.7-2.2-11.8-6.5-15.4c-4.3-3.6-10.6-5.4-18.8-5.4h-22v41.4h22C818.7,265.9,825,264.1,829.3,260.4z"></path> <path class="st2" d="M886,294.7c-6.7-3.7-11.8-8.7-15.6-15s-5.6-13.5-5.6-21.5c0-7.9,1.9-15.1,5.6-21.5c3.7-6.4,8.9-11.4,15.6-15 c6.6-3.7,14.1-5.5,22.2-5.5c8.2,0,15.6,1.8,22.1,5.4c6.6,3.6,11.7,8.6,15.5,15c3.8,6.4,5.7,13.6,5.7,21.5c0,8-1.9,15.1-5.7,21.5 c-3.8,6.4-9,11.4-15.5,15c-6.6,3.6-13.9,5.4-22.1,5.4C900.1,300.2,892.7,298.4,886,294.7z M926,288c5.3-2.9,9.4-7,12.4-12.3 c3-5.2,4.5-11.1,4.5-17.5c0-6.4-1.5-12.3-4.5-17.5c-3-5.2-7.1-9.3-12.4-12.3c-5.3-3-11.2-4.4-17.7-4.4c-6.5,0-12.4,1.5-17.8,4.4 c-5.3,2.9-9.5,7-12.5,12.3c-3,5.2-4.5,11.1-4.5,17.5c0,6.5,1.5,12.3,4.5,17.5c3,5.2,7.2,9.3,12.5,12.3c5.3,2.9,11.2,4.4,17.8,4.4 C914.8,292.4,920.7,290.9,926,288z"></path> <path class="st2" d="M1047.2,216.9v82.6h-7.2l-53.1-67v67h-8.7v-82.6h7.2l53.2,67v-67H1047.2z"></path> <path class="st2" d="M1081,216.9h8.7v82.6h-8.7V216.9z"></path> <path class="st2" d="M1137.4,294.8c-6.6-3.6-11.7-8.6-15.5-15c-3.7-6.4-5.6-13.6-5.6-21.5c0-7.9,1.9-15.1,5.6-21.5 c3.7-6.4,8.9-11.4,15.5-15c6.6-3.6,14-5.4,22.2-5.4c6.1,0,11.8,1,17,3.1c5.2,2,9.6,5,13.2,9l-5.5,5.5c-6.5-6.5-14.6-9.8-24.4-9.8 c-6.5,0-12.5,1.5-17.8,4.5c-5.3,3-9.5,7.1-12.6,12.3c-3,5.2-4.5,11-4.5,17.5c0,6.5,1.5,12.3,4.5,17.5c3,5.2,7.2,9.3,12.6,12.3 c5.3,3,11.3,4.5,17.8,4.5c9.9,0,18.1-3.3,24.4-9.9l5.5,5.5c-3.6,3.9-8,6.9-13.3,9c-5.2,2.1-10.9,3.1-17.1,3.1 C1151.3,300.2,1143.9,298.4,1137.4,294.8z"></path> <path class="st2" d="M1220.1,297.3c-5.6-2-10-4.6-13-7.8l3.4-6.7c3,3,7,5.4,11.9,7.3c5,1.8,10.1,2.8,15.3,2.8 c7.4,0,12.9-1.4,16.6-4.1c3.7-2.7,5.5-6.2,5.5-10.6c0-3.3-1-5.9-3-7.9c-2-2-4.5-3.5-7.4-4.5c-2.9-1.1-7-2.2-12.2-3.5 c-6.2-1.6-11.2-3.1-14.9-4.5s-6.9-3.7-9.5-6.7c-2.6-3-4-7-4-12.2c0-4.2,1.1-8,3.3-11.4c2.2-3.4,5.6-6.2,10.1-8.2 c4.6-2,10.2-3.1,17-3.1c4.7,0,9.3,0.7,13.9,1.9c4.5,1.3,8.4,3.1,11.7,5.4l-3,7c-3.5-2.3-7.2-4-11.1-5.1c-3.9-1.1-7.8-1.7-11.6-1.7 c-7.2,0-12.7,1.4-16.3,4.2c-3.7,2.8-5.5,6.4-5.5,10.8c0,3.3,1,6,3,8c2,2,4.5,3.5,7.6,4.6c3,1.1,7.1,2.2,12.2,3.5 c6.1,1.5,11,3,14.7,4.4c3.7,1.5,6.9,3.7,9.5,6.6c2.6,2.9,3.9,6.9,3.9,12c0,4.2-1.1,8-3.4,11.4c-2.2,3.4-5.7,6.1-10.3,8.1 c-4.6,2-10.3,3-17.1,3C1231.6,300.2,1225.7,299.2,1220.1,297.3z"></path> </g> <g> <path class="st2" d="M818.3,156l0.4-25.1c-5.8-0.3-11.2-1.5-16.1-3.8l-12.6,23.1C798.7,153.9,808.1,155.8,818.3,156z"></path> <path class="st2" d="M783.3,106.4c-1.9-4.9-2.8-10.2-2.8-16c0-7.9,1.7-14.9,5.2-21c3.4-6.2,8.3-11,14.4-14.4 c6.2-3.4,13.2-5.2,21-5.2c12.7,0,23.3,5,31.9,14.9l18.9-17.4c-6-7.3-13.5-12.8-22.4-16.7c-8.9-3.9-18.8-5.8-29.8-5.8 c-13.1,0-24.8,2.8-35.3,8.4c-10.5,5.6-18.7,13.4-24.7,23.4c-6,10-9,21.3-9,33.8c0,10.1,2,19.4,5.9,27.8L783.3,106.4z"></path> <path class="st2" d="M843.2,124.7l13.9,21.5c5.6-3.4,10.6-7.7,14.8-12.8L853,116C850,119.5,846.7,122.4,843.2,124.7z"></path> <path class="st2" d="M838,127.5c-4.1,1.9-8.6,3-13.4,3.3l2.1,24.9c8.2-0.7,15.8-2.5,22.7-5.5c0,0,0,0,0.1,0L838,127.5z"></path> <path class="st2" d="M797.5,124.2c-4.8-3.2-8.7-7.3-11.6-12.4L761,126c5.5,8.4,12.6,15.2,21.5,20.4L797.5,124.2z"></path> </g> </g> </svg> 